<?xml version="1.0" standalone="no"?>
<!DOCTYPE svg PUBLIC "-//W3C//DTD SVG 20010904//EN"
 "http://www.w3.org/TR/2001/REC-SVG-20010904/DTD/svg10.dtd">
<svg class="text-green-700 dark:text-white fill-current" version="1.0" xmlns="http://www.w3.org/2000/svg" viewBox="0 0 1500.000000 625.000000"
 preserveAspectRatio="xMidYMid meet">

<g transform="translate(0.000000,625.000000) scale(0.100000,-0.100000)"
fill="currentColor" stroke="none">
<path d="M0 3145 l0 -3105 1534 0 c852 0 1537 4 1540 9 3 4 3 198 -1 430 l-6
421 -869 0 -868 0 0 288 0 287 781 1153 781 1152 474 0 474 0 0 -1130 0 -1130
244 0 243 0 38 58 c49 74 176 198 248 241 67 40 159 78 228 94 65 16 66 38 2
55 -134 36 -302 150 -388 263 -59 78 -118 202 -147 306 -18 65 -21 107 -22
248 -1 199 16 280 89 430 80 167 192 288 366 397 226 142 507 210 869 210 231
0 410 -24 583 -78 16 -5 17 59 17 1250 l0 1256 -3105 0 -3105 0 0 -3105z"/>
<path d="M5424 3171 c-156 -38 -260 -115 -319 -234 -71 -145 -71 -309 0 -454
57 -116 154 -189 307 -230 88 -24 318 -24 407 1 236 64 351 214 351 457 0 155
-38 248 -139 342 -61 57 -151 102 -247 122 -94 20 -271 18 -360 -4z"/>
<path d="M7843 3170 c-203 -53 -351 -201 -432 -432 -46 -134 -62 -234 -69
-443 l-7 -190 -178 -44 -178 -43 3 -52 3 -51 178 -3 177 -2 0 -848 0 -848
-117 -28 c-214 -50 -195 -40 -191 -94 l3 -47 553 -3 552 -2 0 49 c0 39 -4 51
-17 55 -10 3 -109 19 -220 37 l-203 32 0 848 0 849 273 2 272 3 0 90 0 90
-274 3 -273 2 5 308 c6 338 16 417 66 507 22 38 41 57 82 79 49 25 61 28 124
23 79 -6 150 -30 160 -55 4 -9 24 -64 45 -122 21 -58 41 -113 45 -123 6 -15
17 -17 59 -15 l51 3 3 222 2 222 -37 10 c-136 36 -345 41 -460 11z"/>
<path d="M14040 3101 c0 -58 -25 -48 200 -82 74 -11 135 -21 136 -22 1 -1 4
-196 7 -432 3 -237 9 -439 13 -449 6 -17 4 -18 -20 -12 -108 27 -247 40 -436
40 -179 1 -216 -2 -292 -21 -177 -45 -300 -114 -407 -228 -114 -123 -196 -304
-237 -525 -26 -136 -25 -505 0 -645 73 -404 260 -627 588 -702 93 -21 337 -23
423 -4 105 23 223 72 302 123 41 27 77 48 78 46 2 -2 9 -34 17 -73 l14 -70
287 -3 287 -2 0 49 c0 57 9 52 -162 87 l-88 18 -2 1476 -3 1475 -352 3 -353 2
0 -49z m273 -1153 l67 -13 1 -810 0 -810 -33 -16 c-108 -54 -409 -87 -539 -60
-224 47 -360 216 -415 516 -25 139 -25 466 0 620 54 330 184 520 397 580 43
12 94 14 254 10 110 -2 230 -10 268 -17z"/>
<path d="M2585 2249 c-270 -392 -491 -716 -493 -720 -2 -5 217 -9 492 -9 l496
0 0 720 c0 396 -1 720 -3 720 -1 0 -223 -320 -492 -711z"/>
<path d="M11825 2134 c-104 -20 -306 -92 -423 -150 -59 -28 -105 -46 -107 -40
-2 6 -7 43 -12 81 l-8 70 -290 0 -290 0 -3 -47 c-3 -42 -1 -48 20 -53 13 -3
68 -15 123 -28 l100 -23 0 -874 0 -874 -100 -23 c-55 -13 -110 -25 -123 -28
-21 -5 -23 -11 -20 -53 l3 -47 440 0 440 0 3 47 c4 54 20 46 -158 81 l-115 23
0 819 0 820 115 22 c167 32 360 47 439 34 126 -20 200 -74 247 -176 42 -93 45
-144 42 -850 l-3 -669 -115 -23 c-178 -35 -162 -27 -158 -81 l3 -47 440 0 440
0 3 47 c3 42 1 48 -20 53 -13 3 -68 16 -123 28 l-100 22 -6 755 c-5 671 -7
762 -22 819 -55 204 -177 327 -365 367 -83 17 -205 17 -297 -2z"/>
<path d="M8407 2093 c-4 -3 -7 -26 -7 -49 0 -37 3 -44 23 -49 12 -3 72 -15
132 -28 l110 -22 5 -770 5 -770 29 -83 c65 -187 180 -282 379 -313 172 -27
454 35 712 155 l94 44 6 -67 c3 -36 7 -73 8 -81 2 -13 44 -15 300 -18 l298 -2
-3 52 -3 52 -125 26 -125 26 -3 952 -2 952 -333 -2 -332 -3 -3 -47 c-3 -46 -2
-47 30 -53 18 -3 88 -16 156 -28 l123 -22 -1 -810 c0 -445 -4 -812 -8 -816
-14 -14 -209 -48 -337 -60 -226 -20 -326 1 -411 85 -94 95 -88 37 -94 951 l-5
800 -306 3 c-168 1 -308 -1 -312 -5z"/>
<path d="M5415 1615 c-132 -31 -213 -73 -284 -150 -97 -105 -132 -260 -96
-428 34 -164 142 -276 320 -334 107 -34 320 -44 440 -19 104 21 212 73 275
132 162 152 181 455 40 634 -44 56 -140 116 -233 146 -72 24 -101 27 -242 30
-111 2 -178 -1 -220 -11z"/>
<path d="M3840 470 l0 -430 668 0 c434 0 662 4 652 10 -8 5 -24 10 -36 10 -30
0 -172 44 -267 83 -317 129 -537 366 -611 658 l-24 94 -191 3 -191 2 0 -430z"/>
</g>
</svg>
